<svg id="Layer_2" data-name="Layer 2" xmlns="http://www.w3.org/2000/svg" viewBox="0 0 801.59 702.5"><defs><style>.cls-1{fill:#879baf;}.cls-2{fill:#4b5765;}</style></defs><title>cropped-image-icon</title><path class="cls-1" d="M1848,559.24a69.69,69.69,0,1,0,139.37.08v-.08a69.69,69.69,0,1,0-139.37-.08ZM2067.7,967.85h50.1V667.26L1917.4,817.55,1666.91,617.16l-150.3,150.3V967.85H2067.7Zm100.2-601.19H1466.51a50.12,50.12,0,0,0-50.1,50.1V1018a50.12,50.12,0,0,0,50.1,50.1H2167.9A50.11,50.11,0,0,0,2218,1018V416.76A50.12,50.12,0,0,0,2167.9,366.66Zm0,651.29H1466.51V416.76H2167.9Z" transform="translate(-1416.41 -366.66)"/><path class="cls-2" d="M1817,1019.11H1466.51v-351h-50.1v351a50.12,50.12,0,0,0,48.11,50.05H1817Z" transform="translate(-1416.41 -366.66)"/><polygon class="cls-2" points="400.59 602.35 400.59 371.73 312.8 301.5 200.65 301.5 100.2 401.95 100.2 452.05 100.2 552.25 100.2 602.35 150.3 602.35 400.59 602.35"/><rect class="cls-2" x="400.59" y="301.5" width="51" height="401"/><rect class="cls-2" x="1616.71" y="416.86" width="51" height="451.59" transform="translate(-416.86 1918.2) rotate(-90)"/></svg>